<?xml version="1.0" encoding="utf-8"?>
<!-- Generator: Adobe Illustrator 26.0.2, SVG Export Plug-In . SVG Version: 6.00 Build 0)  -->
<svg version="1.1" id="Слой_1" shape-rendering="geometricPrecision"
	 xmlns="http://www.w3.org/2000/svg" xmlns:xlink="http://www.w3.org/1999/xlink" x="0px" y="0px" viewBox="0 0 179.4 194"
	 style="enable-background:new 0 0 179.4 194;" xml:space="preserve">
<style type="text/css">
	.st0{fill:#214371;}
	.st1{fill:#839090;}
</style>
<g transform="translate(256, 0) scale(-1, 1)scale(1,1)">
	<g>
		<path class="st0" d="M170.8,42.8c16.8,4.2,31.2,16.5,38.3,32.3c3.9,8.9,6.3,18.9,4.4,28.6c-2.8,17.3-14.1,33-29.5,41.3
			c-11.3,6.3-25,8.4-37.5,5c-15.6-4.2-28.9-15.2-36.5-29.4c8.4,5.9,18.3,10,28.6,10c15.4,0.7,30.9-6.6,40.3-18.8
			c5.1-6.5,8.5-14.2,9.7-22.4c2.8-15.7-2.9-32.6-14.6-43.5C172.9,45,171.8,43.9,170.8,42.8z"/>
	</g>
	<g>
		<path class="st1" d="M156.1,11.9c0.9-4,1.1-8.2,3-11.9c1.9,7.8,3.2,15.7,4.9,23.5c-1.7,1.7-3.4,3.5-5.2,5.1
			c-1.7-1.7-3.5-3.2-4.9-5.2C154.3,19.6,155.5,15.8,156.1,11.9z"/>
		<path class="st1" d="M182.1,25.6c3.7-3.7,7.2-7.5,10.9-11.3c-0.7,5.1-0.9,10.4-2.2,15.4c-1.8,1.4-4.2,1.7-6.3,2.5
			C183.7,29.9,182.9,27.7,182.1,25.6z"/>
		<path class="st1" d="M150.6,33.2c14.3-1.8,29.3,1.2,41.6,8.8c15.3,9.2,26.3,25.1,29.5,42.6c2.5,13.1,0.7,27-5,39
			c-6.1,12.8-16.5,23.5-29.2,29.8c-15,7.6-33.1,8.8-49,3.3c-8.9-2.4-16.3-8-23.1-14c-11-10.3-18.1-24.5-19.8-39.4
			c2.5,3.9,4.7,7.9,7.9,11.3c3.5,3.6,4.7,8.6,7.4,12.7c8,13.6,22.5,22.4,37.7,25.5c16,3.2,32.9-1.6,45.7-11.4
			c11.3-8.6,18.6-21.9,21.2-35.7c2.4-12.1-0.4-24.8-6.1-35.6c-6.7-13.4-19.2-23.5-33.5-27.6c-4.3-1.5-8.9-2-12.8-4.3
			C159.1,35.9,154.8,34.7,150.6,33.2z"/>
		<path class="st1" d="M202.5,39.6c3.4-1.3,6.8-2.5,10.1-3.7c-0.9,3.3-1.8,6.6-2.5,9.9c-1.9-0.3-4-0.2-5.8-0.9
			C203.6,43.2,203.1,41.3,202.5,39.6z"/>
		<path class="st1" d="M225.8,64.4c5.2-0.8,10.4-1.5,15.6-2.1c-3.7,3.8-7.5,7.4-11.3,11.1c-2.2-0.8-4.4-1.6-6.7-2.3
			C224.2,68.8,225,66.6,225.8,64.4z"/>
		<path class="st1" d="M227,96.6c2.2-1.9,4-6.1,7.5-4.7c7.2,1.6,14.4,2.8,21.5,4.6c-4.3,1.8-9,2.2-13.5,3.2c-3.5,0.6-7,1.8-10.5,1.9
			C230.1,100.1,228.6,98.3,227,96.6z"/>
		<path class="st1" d="M88,119.8c2.2,0.8,4.5,1.5,6.7,2.3c-0.8,2.2-1.5,4.4-2.3,6.6c-5.2,0.8-10.5,1.4-15.8,2.1
			C80.4,127.1,84.2,123.5,88,119.8z"/>
		<path class="st1" d="M223.7,122c2-0.9,4.2-1.6,6.3-2.3c3.8,3.6,7.6,7.2,11.2,11c-5.2-0.6-10.3-1.3-15.5-2.1
			C225.1,126.5,223.8,124.3,223.7,122z"/>
		<path class="st1" d="M107.8,147.2c1.8,0.2,3.6,0.4,5.3,0.9c1,1.6,1.5,3.6,2.1,5.4c-3.3,1.3-6.6,2.6-9.9,3.7
			C106.1,153.9,106.9,150.6,107.8,147.2z"/>
		<path class="st1" d="M204.4,148.3c1.8-0.8,3.9-0.6,5.8-0.9c0.7,3.3,1.6,6.6,2.5,9.9c-3.4-1.2-6.8-2.4-10.1-3.8
			C203.1,151.7,203.6,149.9,204.4,148.3z"/>
		<path class="st1" d="M126.9,163.2c2.1-0.8,4.2-1.5,6.3-2.2c0.9,2.2,1.7,4.4,2.5,6.6c-3.7,3.8-7.2,7.8-11.2,11.3
			C125.5,173.6,126.1,168.4,126.9,163.2z"/>
		<path class="st1" d="M182.1,167.6c0.8-2.2,1.6-4.4,2.4-6.5c2.1,0.8,4.4,1.1,6.3,2.4c1.2,5.1,1.6,10.3,2.2,15.5
			C189.4,175.1,185.8,171.3,182.1,167.6z"/>
		<path class="st1" d="M158.8,164.4c1.8,1.7,3.5,3.4,5.2,5.1c-1.7,8.1-3.2,16.3-5,24.4c-2.4-8-3.3-16.3-5.3-24.3
			C155.4,167.9,157.1,166.2,158.8,164.4z"/>
	</g>
</g>
</svg>
