<svg xmlns="http://www.w3.org/2000/svg" width="256" height="256" shape-rendering="geometricPrecision"><g transform="translate(256, 0) scale(-1, 1)scale(1,1)" stroke-width=".05%"><g fill="#214371"><path d=" M 140.16 74.28 C 156.98 78.51 171.37 90.82 178.51 106.58 C 182.44 115.45 184.85 125.46 182.90 135.13 C 180.05 152.44 168.80 168.11 153.39 176.48 C 142.12 182.82 128.41 184.92 115.88 181.47 C 100.32 177.30 86.94 166.28 79.37 152.11 C 87.75 157.96 97.62 162.08 107.97 162.14 C 123.39 162.81 138.90 155.55 148.30 143.32 C 153.40 136.87 156.76 129.08 158.03 120.95 C 160.78 105.23 155.08 88.35 143.44 77.44 C 142.32 76.41 141.20 75.38 140.16 74.28 Z"/></g><g fill="#839090"><path d=" M 125.52 43.32 C 126.42 39.34 126.66 35.13 128.54 31.44 C 130.42 39.23 131.76 47.15 133.46 54.98 C 131.76 56.72 130.02 58.43 128.25 60.10 C 126.57 58.41 124.73 56.85 123.31 54.92 C 123.71 51.00 124.87 47.20 125.52 43.32 Z"/><path d=" M 151.54 57.00 C 155.20 53.27 158.79 49.46 162.40 45.68 C 161.69 50.81 161.45 56.06 160.23 61.09 C 158.43 62.47 155.99 62.75 153.89 63.55 C 153.10 61.37 152.31 59.19 151.54 57.00 Z"/><path d=" M 119.96 64.61 C 134.27 62.77 149.25 65.86 161.55 73.45 C 176.81 82.60 187.82 98.53 191.03 116.04 C 193.57 129.13 191.74 143.00 186.07 155.07 C 180.01 167.86 169.62 178.61 156.87 184.84 C 141.86 192.40 123.77 193.66 107.89 188.14 C 99.04 185.79 91.54 180.14 84.82 174.12 C 73.84 163.81 66.76 149.64 65.01 134.68 C 67.52 138.53 69.74 142.61 72.92 145.97 C 76.40 149.55 77.66 154.54 80.32 158.67 C 88.29 172.23 102.84 181.06 118.04 184.19 C 133.99 187.39 150.93 182.61 163.70 172.76 C 175.03 164.18 182.30 150.87 184.85 137.02 C 187.21 124.89 184.50 112.19 178.76 101.38 C 172.09 88.02 159.52 77.85 145.22 73.73 C 140.96 72.26 136.37 71.70 132.40 69.46 C 128.48 67.30 124.14 66.14 119.96 64.61 Z"/><path d=" M 171.90 71.01 C 175.26 69.71 178.65 68.50 182.04 67.29 C 181.11 70.57 180.27 73.88 179.56 77.22 C 177.63 76.96 175.60 77.05 173.78 76.28 C 172.97 74.60 172.50 72.77 171.90 71.01 Z"/><path d=" M 195.18 95.87 C 200.37 95.07 205.58 94.41 210.78 93.73 C 207.11 97.51 203.29 101.15 199.47 104.79 C 197.25 104.02 195.02 103.24 192.79 102.50 C 193.56 100.28 194.36 98.07 195.18 95.87 Z"/><path d=" M 196.36 128.00 C 198.59 126.09 200.38 121.95 203.90 123.26 C 211.05 124.87 218.29 126.04 225.39 127.83 C 221.10 129.65 216.41 130.01 211.91 131.04 C 208.39 131.65 204.95 132.82 201.37 132.96 C 199.49 131.53 197.95 129.73 196.36 128.00 Z"/><path d=" M 57.37 151.19 C 59.60 151.97 61.84 152.73 64.09 153.47 C 63.31 155.68 62.55 157.89 61.78 160.10 C 56.54 160.88 51.28 161.55 46.02 162.23 C 49.80 158.54 53.61 154.90 57.37 151.19 Z"/><path d=" M 193.11 153.44 C 195.15 152.49 197.32 151.87 199.45 151.18 C 203.23 154.82 207.09 158.38 210.68 162.20 C 205.50 161.63 200.34 160.89 195.19 160.09 C 194.45 157.91 193.15 155.78 193.11 153.44 Z"/><path d=" M 77.21 178.68 C 78.99 178.92 80.80 179.07 82.54 179.53 C 83.57 181.18 84.01 183.10 84.63 184.92 C 81.36 186.26 78.03 187.47 74.70 188.65 C 75.44 185.30 76.32 181.99 77.21 178.68 Z"/><path d=" M 173.79 179.70 C 175.58 178.89 177.64 179.05 179.56 178.78 C 180.27 182.11 181.11 185.41 182.02 188.69 C 178.63 187.50 175.27 186.25 171.94 184.93 C 172.52 183.18 172.98 181.37 173.79 179.70 Z"/><path d=" M 96.29 194.63 C 98.40 193.87 100.51 193.11 102.63 192.38 C 103.50 194.55 104.33 196.75 105.16 198.94 C 101.44 202.70 97.97 206.72 94.01 210.24 C 94.86 205.05 95.46 199.82 96.29 194.63 Z"/><path d=" M 151.53 198.99 C 152.31 196.81 153.10 194.63 153.90 192.45 C 156.00 193.21 158.33 193.59 160.22 194.84 C 161.42 199.90 161.77 205.15 162.42 210.31 C 158.84 206.49 155.19 202.74 151.53 198.99 Z"/><path d=" M 128.22 195.86 C 130.02 197.52 131.76 199.24 133.47 201.00 C 131.75 209.13 130.22 217.30 128.43 225.41 C 126.04 217.44 125.08 209.14 123.08 201.08 C 124.79 199.34 126.51 197.60 128.22 195.86 Z"/></g></g></svg>